www.brazukas.org

Resident.Evil.Extinction.2007.1080p.BluRay.DTS

Poster: http://i.imgur.com/0zfIc.jpg

IMDB: http://www.imdb.com/title/tt0432021/

NFO:
Format                           : Matroska
File size                        : 7.95 GiB
Duration                         : 1h 34mn
Overall bit rate                 : 12.1 Mbps
Encoded date                     : UTC 2008-01-09 18:50:09
Writing application              : mkvmerge v2.1.0 ('Another Place To Fall') built on Aug 19 2007 13:40:07
Writing library                  : libebml v0.7.7 + libmatroska v0.8.1

Video
ID                               : 3
Format                           : AVC
Format/Info                      : Advanced Video Codec
Format profile                   : High@L5.1
Format settings, CABAC           : Yes
Format settings, ReFrames        : 8 frames
Codec ID                         : V_MPEG4/ISO/AVC
Duration                         : 1h 34mn
Bit rate                         : 10.6 Mbps
Width                            : 1 920 pixels
Height                           : 800 pixels
Display aspect ratio             : 2.40:1
Frame rate                       : 23.976 fps
Color space                      : YUV
Chroma subsampling               : 4:2:0
Bit depth                        : 8 bits
Scan type                        : Progressive
Bits/(Pixel*Frame)               : 0.288
Stream size                      : 6.80 GiB (86%)
Writing library                  : x264 core 57 svn-709C
Encoding settings                : cabac=1 / ref=5 / deblock=1:0:0 / analyse=0x3:0x113 / me=umh / fpel_cmp=sad / subme=6 / me-prepass=0 / brdo=0 / mixed_ref=1 / me_range=16 / chroma_me=1 / trellis=1 / 8x8dct=1 / cqm=2 / deadzone=4,6 / chroma_qp_offset=0 / threads=3 / nr=0 / decimate=1 / mbaff=0 / bframes=3 / b_pyramid=1 / b_adapt=1 / b_bias=0 / direct=3 / wpredb=1 / bime=1 / keyint=250 / keyint_min=25 / scenecut=40(pre) / rc=2pass / bitrate=10590 / ratetol=1.0 / rceq='blurCplx^(1-qComp)' / qcomp=0.60 / qpmin=10 / qpmax=51 / qpstep=4 / cplxblur=20.0 / qblur=0.5 / ip_ratio=1.40 / pb_ratio=1.30 / zones=125855,135198,b=0.45 / aq=1:0.3:15.0
Language                         : English

Audio
ID                               : 2
Format                           : DTS
Format/Info                      : Digital Theater Systems
Codec ID                         : A_DTS
Duration                         : 1h 34mn
Bit rate mode                    : Constant
Bit rate                         : 1 510 Kbps
Channel(s)                       : 6 channels
Channel positions                : Front: L C R, Side: L R, LFE
Sampling rate                    : 48.0 KHz
Bit depth                        : 24 bits
Compression mode                 : Lossy
Stream size                      : 1 016 MiB (12%)
Language                         : English

Text
ID                               : 1
Format                           : UTF-8
Codec ID                         : S_TEXT/UTF8
Codec ID/Info                    : UTF-8 Plain Text
Language                         : English

Screens:
[shot]http://i.imgur.com/QKMfg.jpg[/shot][shot]http://i.imgur.com/TwM2L.jpg[/shot][shot]http://i.imgur.com/nEOvk.jpg[/shot][shot]http://i.imgur.com/DRuco.jpg[/shot]
[shot]http://i.imgur.com/BCdVR.jpg[/shot][shot]http://i.imgur.com/gUtZ5.jpg[/shot][shot]http://i.imgur.com/gVYHK.jpg[/shot][shot]http://i.imgur.com/O3trP.jpg[/shot]

www.brazukas.org